<?xml version="1.0" encoding="UTF-8"?>
<svg width="157px" height="19px" viewBox="0 0 157 19" version="1.1" xmlns="http://www.w3.org/2000/svg" xmlns:xlink="http://www.w3.org/1999/xlink">
    <!-- Generator: Sketch 40.1 (33804) - http://www.bohemiancoding.com/sketch -->
    <title>logo-convitar</title>
    <desc>Created with Sketch.</desc>
    <defs>
        <polygon id="path-1" points="0.481677069 18.8235294 18.6243772 18.8235294 18.6243772 0.716470588 0.481677069 0.716470588 0.481677069 18.8235294"></polygon>
        <polygon id="path-3" points="0.459729308 18.8235294 14.3924498 18.8235294 14.3924498 0.716470588 0.459729308 0.716470588"></polygon>
        <polygon id="path-5" points="0.472170285 17.9144385 16.3907524 17.9144385 16.3907524 0.0996149733 0.472170285 0.0996149733 0.472170285 17.9144385"></polygon>
        <polygon id="path-7" points="0 19.2836471 156.230502 19.2836471 156.230502 1.17658824 0 1.17658824"></polygon>
    </defs>
    <g id="Home" stroke="none" stroke-width="1" fill="none" fill-rule="evenodd">
        <g id="1.0-home" transform="translate(-882.000000, -28.000000)">
            <g id="nav">
                <g id="logo-convitar" transform="translate(882.000000, 27.000000)">
                    <path d="M13.3236995,2.19894118 C14.5947917,2.88011765 15.600633,3.79541176 16.3423969,4.946 L14.8072273,6.16835294 C13.4117252,4.11423529 11.5138894,3.08835294 9.11254613,3.08835294 C7.13490027,3.08835294 5.47884193,3.76952941 4.14554478,5.13305882 C2.81224763,6.49541176 2.14559905,8.19423529 2.14559905,10.2307059 C2.14559905,12.266 2.81224763,13.9648235 4.14554478,15.3283529 C5.47884193,16.6907059 7.13490027,17.3718824 9.11254613,17.3718824 C11.5138894,17.3718824 13.4117252,16.346 14.8072273,14.2918824 L16.3423969,15.5130588 C15.6194118,16.6636471 14.6170916,17.5801176 13.3366099,18.2612941 C12.0561282,18.9424706 10.6395,19.2836471 9.08555156,19.2836471 C6.54336703,19.2836471 4.39319064,18.4118824 2.63619607,16.6683529 C0.878027815,14.9248235 0.000117367707,12.7789412 0.000117367707,10.2307059 C0.000117367707,7.68129412 0.878027815,5.53541176 2.63619607,3.79188235 C4.39319064,2.04835294 6.54336703,1.17658824 9.08555156,1.17658824 C10.6395,1.17658824 12.0526072,1.51658824 13.3236995,2.19894118 L13.3236995,2.19894118 Z" id="Fill-1" fill="#221F20"></path>
                    <g id="Group-5" transform="translate(22.299864, 0.460118)">
                        <mask id="mask-2" fill="white">
                            <use xlink:href="#path-1"></use>
                        </mask>
                        <g id="Clip-4"></g>
                        <path d="M4.60010991,4.65929412 C3.28441791,6.01341176 2.62598507,7.70752941 2.62598507,9.744 C2.62598507,11.7969412 3.28441791,13.5051765 4.60010991,14.8675294 C5.9158019,16.2298824 7.57068657,16.9122353 9.56593758,16.9122353 C11.5447571,16.9122353 13.1902524,16.2298824 14.5059444,14.8675294 C15.8216364,13.5051765 16.4800692,11.7969412 16.4800692,9.744 C16.4800692,7.72517647 15.8216364,6.03458824 14.5059444,4.67223529 C13.1902524,3.30988235 11.5447571,2.62752941 9.56593758,2.62752941 C7.57068657,2.62752941 5.9158019,3.30517647 4.60010991,4.65929412 M15.9753881,3.33223529 C17.741772,5.07576471 18.6243772,7.22164706 18.6243772,9.76988235 C18.6243772,12.3192941 17.741772,14.4651765 15.9753881,16.2087059 C14.2101777,17.9522353 12.0646961,18.824 9.53894301,18.824 C6.99675848,18.824 4.8512768,17.9522353 3.10367164,16.2087059 C1.35489281,14.4651765 0.481677069,12.3192941 0.481677069,9.76988235 C0.481677069,7.22164706 1.35958752,5.07576471 3.11658209,3.33223529 C4.87357666,1.58870588 7.01436364,0.715764706 9.53894301,0.715764706 C12.0646961,0.715764706 14.2101777,1.58870588 15.9753881,3.33223529" id="Fill-3" fill="#221F20" mask="url(#mask-2)"></path>
                    </g>
                    <g id="Group-8" transform="translate(48.120760, 0.460118)">
                        <mask id="mask-4" fill="white">
                            <use xlink:href="#path-3"></use>
                        </mask>
                        <g id="Clip-7"></g>
                        <polygon id="Fill-6" fill="#221F20" mask="url(#mask-4)" points="14.3924498 1.00870588 14.3924498 18.824 13.6506859 18.824 2.52657463 5.36282353 2.52657463 18.5322353 0.459729308 18.5322353 0.459729308 0.715764706 1.20149322 0.715764706 12.3267782 14.204 12.3267782 1.00870588"></polygon>
                    </g>
                    <g id="Group-11" transform="translate(69.246947, 1.369209)">
                        <mask id="mask-6" fill="white">
                            <use xlink:href="#path-5"></use>
                        </mask>
                        <g id="Clip-10"></g>
                        <polygon id="Fill-9" fill="#221F20" mask="url(#mask-6)" points="16.3907524 0.0996149733 8.81584057 17.9149091 8.04708209 17.9149091 0.472170285 0.0996149733 2.75027748 0.0996149733 8.44495862 13.799615 14.1126452 0.0996149733"></polygon>
                    </g>
                    <mask id="mask-8" fill="white">
                        <use xlink:href="#path-7"></use>
                    </mask>
                    <g id="Clip-13"></g>
                    <polygon id="Fill-12" fill="#221F20" mask="url(#mask-8)" points="92.8437246 18.9918824 94.9093962 18.9918824 94.9093962 1.46835294 92.8437246 1.46835294"></polygon>
                    <polygon id="Fill-14" fill="#221F20" mask="url(#mask-8)" points="116.152716 3.32717647 109.981522 3.32717647 109.981522 18.9918824 107.914677 18.9918824 107.914677 3.32717647 101.770478 3.32717647 101.770478 1.46835294 116.152716 1.46835294"></polygon>
                    <path d="M127.410392,4.97294118 L123.914008,13.5752941 L130.906776,13.5752941 L127.410392,4.97294118 Z M131.675535,15.4341176 L123.146423,15.4341176 L121.637075,18.9917647 L119.464598,18.9917647 L127.03951,1.17647059 L127.808269,1.17647059 L135.38318,18.9917647 L133.184883,18.9917647 L131.675535,15.4341176 Z" id="Fill-15" fill="#221F20" mask="url(#mask-8)"></path>
                    <path d="M144.655112,9.77882353 L148.655003,9.77882353 C149.785254,9.77882353 150.654949,9.48705882 151.264088,8.90235294 C151.873226,8.31882353 152.177208,7.54 152.177208,6.56705882 C152.177208,5.61058824 151.868531,4.83176471 151.250003,4.22941176 C150.632649,3.62823529 149.766476,3.32705882 148.655003,3.32705882 L144.655112,3.32705882 L144.655112,9.77882353 Z M153.820356,18.9917647 L148.389752,11.6376471 L144.655112,11.6376471 L144.655112,18.9917647 L142.58944,18.9917647 L142.58944,1.46941176 L148.734813,1.46941176 C150.429603,1.46941176 151.7852,1.94235294 152.799257,2.88941176 C153.815661,3.83647059 154.32269,5.05294118 154.32269,6.54 C154.32269,7.72588235 153.996408,8.74823529 153.34267,9.60705882 C152.690105,10.4647059 151.798111,11.0623529 150.66786,11.3976471 L156.229915,18.9917647 L153.820356,18.9917647 Z" id="Fill-16" fill="#221F20" mask="url(#mask-8)"></path>
                </g>
            </g>
        </g>
    </g>
</svg>